# xmcd
#
# Track frame offsets:
#	183
#	11925
#	22753
#	41668
#	53050
#	67233
#	77353
#	89605
#	100668
#	113198
#	126150
#	138175
#	149695
#	163753
#	176140
#	188078
#	200695
#	216523
#	234375
#	246003
#
# Disc length: 3448
#
# Revision: 2
# Processed by: cddbd v1.5.1PL0 Copyright (c) Steve Scherf et al.
# Submitted via: CDValet v3.31 - Copyright (c) 1997 Greg Leichner
# Normalized: r1:DSETVAR1,TDELIM( - )
#
DISCID=220d7614
DTITLE=Various Artist - 20 Blues Classics (Part 2)
DYEAR=1900
DGENRE=
TTITLE0=Little Walter - My Babe
TTITLE1=Howlin´ Wolf - Wang Dang Doodle
TTITLE2=Muddy Waters - I Got My Mojo Working
TTITLE3=Sonny Boy Williamson - Born Blind
TTITLE4=Muddy Waters - Rollin´ Stone
TTITLE5=John Lee Hooker - Dimples
TTITLE6=BB King - Dark Is The Night Part 2
TTITLE7=Howlin´ Wolf - You´ll Be Mine
TTITLE8=Elmore James - Standing At The Crossroads
TTITLE9=BB King - The Woman I Love
TTITLE10=Muddy Waters - Long Distance Call
TTITLE11=Little Walter - As Long As I Have You
TTITLE12=BB King - Whole Lotta Love
TTITLE13=Little Walter - Juke
TTITLE14=John Lee Hooker - Whiskey And Wimmen
TTITLE15=BB King - Ten Long Years
TTITLE16=Lightning Hopkins - Coffee For Mama
TTITLE17=John Mayall - Mama Talk To Your Daughter
TTITLE18=BB King - Every Day I Have The Blues
TTITLE19=Howlin´ Wolf - Killing Floor
EXTD=
EXTT0=
EXTT1=
EXTT2=
EXTT3=
EXTT4=
EXTT5=
EXTT6=
EXTT7=
EXTT8=
EXTT9=
EXTT10=
EXTT11=
EXTT12=
EXTT13=
EXTT14=
EXTT15=
EXTT16=
EXTT17=
EXTT18=
EXTT19=
PLAYORDER=
